<svg xmlns="http://www.w3.org/2000/svg" xmlns:svg="http://www.w3.org/2000/svg" id="svg2" width="512" height="512" version="1.1" viewBox="0 0 512 512"><metadata id="metadata7"/><g id="layer1" transform="translate(-225.71241,-376.40319)" style="display:inline;opacity:1"><circle style="color:#000;display:inline;overflow:visible;visibility:visible;opacity:1;fill:#314545;fill-opacity:1;fill-rule:evenodd;stroke:#8f8f8f;stroke-width:11.9648447;stroke-linecap:butt;stroke-linejoin:miter;stroke-miterlimit:4;stroke-dasharray:none;stroke-dashoffset:0;stroke-opacity:1;marker:none;enable-background:accumulate" id="path4170-0-8-4" cx="481.712" cy="632.403" r="219.018"/><g id="g4202" transform="matrix(9.011174,0,0,9.011175,-4103.9294,-5880.9514)" style="stroke:#00b3b3;stroke-width:3;stroke-miterlimit:4;stroke-dasharray:none;stroke-opacity:1"><path id="path4178" d="m 500.0893,709.5943 18.30357,26.42857" style="fill:none;fill-rule:evenodd;stroke:#00b3b3;stroke-width:3;stroke-linecap:butt;stroke-linejoin:miter;stroke-miterlimit:4;stroke-dasharray:none;stroke-opacity:1"/><path id="path4178-2" d="m 517.67855,709.5943 -18.30357,26.42857" style="fill:none;fill-rule:evenodd;stroke:#00b3b3;stroke-width:3;stroke-linecap:butt;stroke-linejoin:miter;stroke-miterlimit:4;stroke-dasharray:none;stroke-opacity:1"/></g><g id="g4196" transform="matrix(0.67499997,0,0,0.675,158.24574,327.04298)"><path id="LGRIP" d="m 390.63272,648.81596 c -11.78993,-4.4875 -85.69242,-15.79789 -102.13822,-17.14412 -17.90712,8.56832 -28.0742,22.58347 -29.82718,42.51958 l 0.63474,47.59657 c -0.55869,14.59846 4.67422,40.28362 23.79833,44.74073 l 116.13554,-13.32704 c 12.12598,-5.50232 10.14488,-8.91459 6.34624,-12.05771 -10.81472,-8.85246 -23.79037,-28.69912 -23.16368,-39.34656 0.50253,-14.43269 1.57474,-25.11649 19.69579,-38.58706 4.01937,-2.30096 -1.13067,-9.93728 -11.48156,-14.39439 z" style="opacity:0;fill:#000;fill-opacity:.89256197;fill-rule:evenodd;stroke:#000;stroke-width:7.10775232px;stroke-linecap:butt;stroke-linejoin:miter;stroke-opacity:.28638497"/><path id="RGRIP" d="m 504.50639,648.81596 c 11.78993,-4.4875 85.69242,-15.79789 102.13822,-17.14412 17.90712,8.56832 28.0742,22.58347 29.82718,42.51958 l -0.63474,47.59657 c 0.55869,14.59846 -4.67422,40.28362 -23.79833,44.74073 L 495.90318,753.20168 c -12.12598,-5.50232 -10.14488,-8.91459 -6.34624,-12.05771 10.81472,-8.85246 23.79037,-28.69912 23.16368,-39.34656 -0.50253,-14.43269 -1.57474,-25.11649 -19.69579,-38.58706 -4.01937,-2.30096 1.13067,-9.93728 11.48156,-14.39439 z" style="opacity:0;fill:#000;fill-opacity:.90082643;fill-rule:evenodd;stroke:#000;stroke-width:7.10775232px;stroke-linecap:butt;stroke-linejoin:miter;stroke-opacity:.28638497"/><circle style="color:#000;display:inline;overflow:visible;visibility:visible;opacity:0;fill:#000;fill-opacity:.33333333;fill-rule:evenodd;stroke:#000;stroke-width:.90192062;stroke-linecap:butt;stroke-linejoin:miter;stroke-miterlimit:4;stroke-dasharray:none;stroke-dashoffset:0;stroke-opacity:1;marker:none;enable-background:accumulate" id="RPAD_press" cx="573.41" cy="652.534" r="25.803"/><circle style="color:#000;display:inline;overflow:visible;visibility:visible;opacity:0;fill:#000;fill-opacity:.33333333;fill-rule:evenodd;stroke:#000;stroke-width:.90192062;stroke-linecap:butt;stroke-linejoin:miter;stroke-miterlimit:4;stroke-dasharray:none;stroke-dashoffset:0;stroke-opacity:1;marker:none;enable-background:accumulate" id="LPAD_press" cx="325.417" cy="652.534" r="25.803"/></g></g><g id="layer2" transform="translate(0,167)" style="display:none"><rect id="AREA_LPADTEST" width="86.926" height=".75" x="31.132" y="242.687" ry="0" style="color:#000;display:inline;overflow:visible;visibility:visible;opacity:1;fill:none;fill-opacity:1;fill-rule:evenodd;stroke:#00b400;stroke-width:.75;stroke-linecap:butt;stroke-linejoin:miter;stroke-miterlimit:4;stroke-dasharray:none;stroke-dashoffset:0;stroke-opacity:1;marker:none;enable-background:accumulate"/><rect id="AREA_RPADTEST" width="88.534" height=".75" x="216.175" y="242.687" ry="0" style="color:#000;display:inline;overflow:visible;visibility:visible;opacity:1;fill:none;fill-opacity:1;fill-rule:evenodd;stroke:#00b400;stroke-width:.75;stroke-linecap:butt;stroke-linejoin:miter;stroke-miterlimit:4;stroke-dasharray:none;stroke-dashoffset:0;stroke-opacity:1;marker:none;enable-background:accumulate"/><rect id="AREA_STICKTEST" width="53.913" height=".75" x="100.882" y="294.437" ry="0" style="color:#000;display:inline;overflow:visible;visibility:visible;opacity:1;fill:none;fill-opacity:1;fill-rule:evenodd;stroke:#00b400;stroke-width:.75;stroke-linecap:butt;stroke-linejoin:miter;stroke-miterlimit:4;stroke-dasharray:none;stroke-dashoffset:0;stroke-opacity:1;marker:none;enable-background:accumulate"/></g></svg>