<svg xmlns="http://www.w3.org/2000/svg" xmlns:svg="http://www.w3.org/2000/svg" id="svg2" width="24" height="24" version="1.1" viewBox="0 0 24 24"><defs id="defs4"><filter style="color-interpolation-filters:sRGB" id="filter3798"><feGaussianBlur id="feGaussianBlur3800" result="result91" stdDeviation="5"/><feComposite id="feComposite3802" in="SourceGraphic" in2="result91" operator="over"/></filter><linearGradient id="linearGradient3759"><stop style="stop-color:#fff;stop-opacity:1" id="stop3761" offset="0"/><stop style="stop-color:#fff;stop-opacity:0" id="stop3763" offset="1"/></linearGradient><filter style="color-interpolation-filters:sRGB" id="filter4192"><feGaussianBlur id="feGaussianBlur4194" result="result91" stdDeviation="5"/><feComposite id="feComposite4196" in="SourceGraphic" in2="result91" operator="over"/></filter><filter style="color-interpolation-filters:sRGB" id="filter3798-5"><feGaussianBlur id="feGaussianBlur3800-8" result="result91" stdDeviation="5"/><feComposite id="feComposite3802-8" in="SourceGraphic" in2="result91" operator="over"/></filter><filter style="color-interpolation-filters:sRGB" id="filter3798-5-2"><feGaussianBlur id="feGaussianBlur3800-8-4" result="result91" stdDeviation="5"/><feComposite id="feComposite3802-8-9" in="SourceGraphic" in2="result91" operator="over"/></filter></defs><metadata id="metadata7"/><g id="layer1" transform="translate(-240.24047,-784.63652)" style="display:inline"><path style="fill:#005f00;fill-opacity:1;fill-rule:evenodd;stroke:#7f7;stroke-width:.979;stroke-linecap:butt;stroke-linejoin:miter;stroke-miterlimit:4;stroke-dasharray:none;stroke-opacity:1" id="path4166-6" d="m 251.53956,788.36402 0,0.008 c -1.68266,0.0219 -3.49719,-0.014 -5.0491,0.0727 -1.11422,0.067 -1.48448,0.0757 -2.49109,0.63472 -0.51223,0.28448 -0.96572,0.74236 -1.17576,1.17768 -0.46525,1.36871 -1.78557,6.67581 -2.01123,9.18053 -0.0457,1.47512 -0.20917,3.13506 0.73796,4.14099 0.73686,0.68893 1.20401,1.02272 2.05902,1.32679 0.90352,0.004 1.21596,0.0473 1.8774,-0.77428 0.80981,-1.39307 1.69797,-3.10142 2.41462,-4.12187 0.499,-0.22979 0.95901,-0.24938 1.68049,-0.26192 0.91477,-0.0202 0.25719,-0.035 2.14314,-0.0516 l 0,-0.002 c 1.49933,-0.007 0.98954,0.008 3.17361,0.0535 0.72148,0.0125 1.18149,0.0321 1.68048,0.26192 0.71667,1.02045 1.60481,2.7288 2.41462,4.12187 0.66143,0.82153 0.97389,0.7782 1.8774,0.77428 0.85503,-0.30407 1.32409,-0.63786 2.06094,-1.32679 0.94713,-1.00593 0.78176,-2.66587 0.73605,-4.14099 -0.22567,-2.50472 -1.54407,-7.81182 -2.00932,-9.18053 -0.21005,-0.43532 -0.66353,-0.8932 -1.17576,-1.17768 -1.00662,-0.55905 -2.82794,-0.57924 -3.94216,-0.64619 -1.58939,-0.089 -3.28487,-0.0433 -5.00131,-0.0688 z"/><g id="g4196" transform="matrix(0.05309377,0,0,0.05309377,228.42169,758.2299)"><path id="LGRIP" d="m 390.63272,648.81596 c -11.78993,-4.4875 -85.69242,-15.79789 -102.13822,-17.14412 -17.90712,8.56832 -28.0742,22.58347 -29.82718,42.51958 l 0.63474,47.59657 c -0.55869,14.59846 4.67422,40.28362 23.79833,44.74073 l 116.13554,-13.32704 c 12.12598,-5.50232 10.14488,-8.91459 6.34624,-12.05771 -10.81472,-8.85246 -23.79037,-28.69912 -23.16368,-39.34656 0.50253,-14.43269 1.57474,-25.11649 19.69579,-38.58706 4.01937,-2.30096 -1.13067,-9.93728 -11.48156,-14.39439 z" style="opacity:0;fill:#000;fill-opacity:.1372549;fill-rule:evenodd;stroke:#000;stroke-width:7.10775232px;stroke-linecap:butt;stroke-linejoin:miter;stroke-opacity:.28638497"/><path id="RGRIP" d="m 504.50639,648.81596 c 11.78993,-4.4875 85.69242,-15.79789 102.13822,-17.14412 17.90712,8.56832 28.0742,22.58347 29.82718,42.51958 l -0.63474,47.59657 c 0.55869,14.59846 -4.67422,40.28362 -23.79833,44.74073 L 495.90318,753.20168 c -12.12598,-5.50232 -10.14488,-8.91459 -6.34624,-12.05771 10.81472,-8.85246 23.79037,-28.69912 23.16368,-39.34656 -0.50253,-14.43269 -1.57474,-25.11649 -19.69579,-38.58706 -4.01937,-2.30096 1.13067,-9.93728 11.48156,-14.39439 z" style="opacity:0;fill:#000;fill-opacity:.1372549;fill-rule:evenodd;stroke:#000;stroke-width:7.10775232px;stroke-linecap:butt;stroke-linejoin:miter;stroke-opacity:.28638497"/></g></g></svg>