<svg xmlns="http://www.w3.org/2000/svg" xmlns:svg="http://www.w3.org/2000/svg" id="svg2" width="128" height="128" version="1.1" viewBox="0 0 128 128"><defs id="defs4"><filter style="color-interpolation-filters:sRGB" id="filter3798"><feGaussianBlur id="feGaussianBlur3800" result="result91" stdDeviation="5"/><feComposite id="feComposite3802" in="SourceGraphic" in2="result91" operator="over"/></filter><linearGradient id="linearGradient3759"><stop style="stop-color:#fff;stop-opacity:1" id="stop3761" offset="0"/><stop style="stop-color:#fff;stop-opacity:0" id="stop3763" offset="1"/></linearGradient><filter style="color-interpolation-filters:sRGB" id="filter4192"><feGaussianBlur id="feGaussianBlur4194" result="result91" stdDeviation="5"/><feComposite id="feComposite4196" in="SourceGraphic" in2="result91" operator="over"/></filter><filter style="color-interpolation-filters:sRGB" id="filter3798-5"><feGaussianBlur id="feGaussianBlur3800-8" result="result91" stdDeviation="5"/><feComposite id="feComposite3802-8" in="SourceGraphic" in2="result91" operator="over"/></filter><filter style="color-interpolation-filters:sRGB" id="filter3798-5-2"><feGaussianBlur id="feGaussianBlur3800-8-4" result="result91" stdDeviation="5"/><feComposite id="feComposite3802-8-9" in="SourceGraphic" in2="result91" operator="over"/></filter></defs><metadata id="metadata7"/><g id="layer1" transform="translate(-240.24047,-680.63652)" style="display:inline"><g id="g4168" transform="matrix(0.248983,0,0,0.248983,181.15854,589.10313)"><path id="path4166-6" d="m 480.25844,438.34704 c -37.49688,0.52965 -76.66275,-0.1994 -111.35046,1.73786 -24.57199,1.47791 -32.77719,1.65981 -54.97585,13.98769 -11.29616,6.27343 -21.30848,16.38283 -25.9408,25.98319 -10.25989,30.18438 -39.36022,147.20335 -44.33673,202.43999 -1.00698,32.53038 -4.6104,69.16015 16.27658,91.34383 16.24989,15.193 26.58313,22.54124 45.43879,29.24698 19.92514,0.0868 26.78301,1.03671 41.36965,-17.08193 17.85888,-30.72128 37.47581,-68.37358 53.28037,-90.87758 11.00449,-5.06787 21.13528,-5.53074 37.04618,-5.807 20.13491,-0.44403 3.00745,-0.77846 44.29435,-1.14457 0.0499,-2.9e-4 0.0347,3e-4 0.0846,0 39.36265,-0.22267 22.4864,0.1454 72.86313,1.18688 15.91091,0.27627 26.04169,0.69664 37.04618,5.76463 15.80456,22.504 35.42149,60.15629 53.28037,90.87758 14.58664,18.11866 21.44429,17.16873 41.36964,17.08192 18.85545,-6.70573 29.18891,-14.05398 45.43879,-29.24697 20.88698,-22.18368 17.28356,-58.81346 16.27659,-91.34383 -4.97638,-55.23658 -34.07648,-172.25555 -44.33661,-202.43993 -4.63208,-9.60036 -14.64463,-19.70976 -25.94079,-25.98319 -22.19865,-12.32745 -62.36381,-12.7641 -86.93559,-14.24201 -34.68053,-1.94329 -71.61924,-0.95988 -109.06158,-1.48353 -0.39976,-0.006 -0.78692,0.006 -1.18689,0 z" style="fill:#080f21;fill-opacity:1;fill-rule:evenodd;stroke:#538296;stroke-width:4.58443594;stroke-linecap:butt;stroke-linejoin:miter;stroke-miterlimit:4;stroke-dasharray:none;stroke-opacity:1"/><circle id="RPAD" cx="638.979" cy="535.094" r="65.984" style="color:#000;display:inline;overflow:visible;visibility:visible;opacity:1;fill:#072132;fill-opacity:1;fill-rule:evenodd;stroke:#538296;stroke-width:2.30643368;stroke-linecap:butt;stroke-linejoin:miter;stroke-miterlimit:4;stroke-dasharray:none;stroke-dashoffset:0;stroke-opacity:1;marker:none;enable-background:accumulate"/><circle id="C" cx="496.287" cy="526.388" r="20.561" style="color:#000;display:inline;overflow:visible;visibility:visible;opacity:1;fill:#080f21;fill-opacity:1;fill-rule:evenodd;stroke:#538296;stroke-width:1.12326336;stroke-linecap:butt;stroke-linejoin:miter;stroke-miterlimit:4;stroke-dasharray:none;stroke-dashoffset:0;stroke-opacity:1;marker:none;enable-background:accumulate"/><rect id="rect4172" width="31.838" height="17.945" x="524.365" y="524.401" ry="8.973" style="color:#000;display:inline;overflow:visible;visibility:visible;opacity:1;fill:#072132;fill-opacity:1;fill-rule:evenodd;stroke:#538296;stroke-width:1.14610898;stroke-linecap:butt;stroke-linejoin:miter;stroke-miterlimit:4;stroke-dasharray:none;stroke-dashoffset:0;stroke-opacity:1;marker:none;enable-background:accumulate"/><rect id="rect4172-1" width="31.838" height="17.945" x="-469.017" y="524.401" ry="8.973" transform="scale(-1,1)" style="color:#000;display:inline;overflow:visible;visibility:visible;opacity:1;fill:#072132;fill-opacity:1;fill-rule:evenodd;stroke:#538296;stroke-width:1.14610898;stroke-linecap:butt;stroke-linejoin:miter;stroke-miterlimit:4;stroke-dasharray:none;stroke-dashoffset:0;stroke-opacity:1;marker:none;enable-background:accumulate"/><circle style="color:#000;display:inline;overflow:visible;visibility:visible;opacity:1;fill:#072132;fill-opacity:1;fill-rule:evenodd;stroke:#538296;stroke-width:2.30643368;stroke-linecap:butt;stroke-linejoin:miter;stroke-miterlimit:4;stroke-dasharray:none;stroke-dashoffset:0;stroke-opacity:1;marker:none;enable-background:accumulate" id="circle4232" cx="354.753" cy="535.094" r="65.984"/><path id="rect4249" d="m 354.7525,479.22012 c -6.46289,0 -11.66597,5.20309 -11.66597,11.66597 l 0,32.5421 -32.54101,0 c -6.46289,0 -11.66575,5.20199 -11.66575,11.66488 0,6.46267 5.20286,11.66575 11.66575,11.66575 l 32.54101,0 0,32.5421 c 0,6.46289 5.20308,11.66488 11.66597,11.66488 6.46289,0 11.66597,-5.20199 11.66597,-11.66488 l 0,-32.5421 32.54101,0 c 6.46267,0 11.66575,-5.20308 11.66575,-11.66575 0,-6.46289 -5.20308,-11.66488 -11.66575,-11.66488 l -32.54101,0 0,-32.5421 c 0,-6.46288 -5.20308,-11.66597 -11.66597,-11.66597 z" style="color:#000;display:inline;overflow:visible;visibility:visible;opacity:.39899998;fill:#0b0e1f;fill-opacity:1;fill-rule:evenodd;stroke:#538296;stroke-width:1.14610898;stroke-linecap:butt;stroke-linejoin:miter;stroke-miterlimit:4;stroke-dasharray:none;stroke-dashoffset:0;stroke-opacity:1;marker:none;enable-background:accumulate"/><path id="path4168-1" d="M 477.59902,614.59289 A 40.917964,40.406495 0 0 1 436.681,654.9994 40.917964,40.406495 0 0 1 395.76297,614.59289 40.917964,40.406495 0 0 1 436.681,574.18638 a 40.917964,40.406495 0 0 1 40.91802,40.40651 z" style="color:#000;display:inline;overflow:visible;visibility:visible;opacity:1;fill:#080f21;fill-opacity:1;fill-rule:evenodd;stroke:#538296;stroke-width:1.42128837;stroke-linecap:butt;stroke-linejoin:miter;stroke-miterlimit:4;stroke-dasharray:none;stroke-dashoffset:0;stroke-opacity:1;marker:none;enable-background:accumulate"/><ellipse id="path4168-1-2" cx="436.539" cy="614.57" rx="29.228" ry="28.863" style="color:#000;display:inline;overflow:visible;visibility:visible;opacity:1;fill:#053245;fill-opacity:1;fill-rule:evenodd;stroke:#538296;stroke-width:6.30857086;stroke-linecap:butt;stroke-linejoin:miter;stroke-miterlimit:4;stroke-dasharray:none;stroke-dashoffset:0;stroke-opacity:1;marker:none;enable-background:accumulate"/><path id="RB" d="m 689.08,461.72692 c -2.75096,-9.83843 -5.26168,-26.68014 -39.29514,-31.58243 -14.12699,-1.95753 -33.5762,-5.33741 -51.7795,-3.88858 -6.75869,0.816 -9.3063,9.15959 -11.06221,13.01975 33.08204,2.10727 77.76538,1.76221 102.13685,22.45126 z" style="fill:#080f21;fill-opacity:1;fill-rule:evenodd;stroke:#538296;stroke-width:3.43832684;stroke-linecap:butt;stroke-linejoin:miter;stroke-miterlimit:4;stroke-dasharray:none;stroke-opacity:1"/><path id="LB" d="m 299.8403,461.72692 c 2.75096,-9.83843 5.2619,-26.68014 39.29536,-31.58243 14.12655,-1.95753 33.57598,-5.33741 51.7795,-3.88858 6.75847,0.816 9.30608,9.15959 11.06199,13.01975 -33.08204,2.10727 -77.76538,1.76221 -102.13685,22.45126 z" LT="path4420-4" style="fill:#080f21;fill-opacity:1;fill-rule:evenodd;stroke:#538296;stroke-width:3.43832684;stroke-linecap:butt;stroke-linejoin:miter;stroke-miterlimit:4;stroke-dasharray:none;stroke-opacity:1"/><circle id="path4170-0" cx="559.262" cy="584.368" r="13.928" style="color:#000;display:inline;overflow:visible;visibility:visible;opacity:1;fill:#072132;fill-opacity:1;fill-rule:evenodd;stroke:#538296;stroke-width:.76088941;stroke-linecap:butt;stroke-linejoin:miter;stroke-miterlimit:4;stroke-dasharray:none;stroke-dashoffset:0;stroke-opacity:1;marker:none;enable-background:accumulate"/><circle id="path4170-0-8-4" cx="529.463" cy="613.962" r="13.928" style="color:#000;display:inline;overflow:visible;visibility:visible;opacity:1;fill:#072132;fill-opacity:1;fill-rule:evenodd;stroke:#538296;stroke-width:.76088941;stroke-linecap:butt;stroke-linejoin:miter;stroke-miterlimit:4;stroke-dasharray:none;stroke-dashoffset:0;stroke-opacity:1;marker:none;enable-background:accumulate"/><circle id="path4170-0-8" cx="559.262" cy="643.966" r="13.928" style="color:#000;display:inline;overflow:visible;visibility:visible;opacity:1;fill:#072132;fill-opacity:1;fill-rule:evenodd;stroke:#538296;stroke-width:.76088941;stroke-linecap:butt;stroke-linejoin:miter;stroke-miterlimit:4;stroke-dasharray:none;stroke-dashoffset:0;stroke-opacity:1;marker:none;enable-background:accumulate"/><circle id="path4170-0-8-4-6" cx="586.768" cy="613.962" r="13.928" style="color:#000;display:inline;overflow:visible;visibility:visible;opacity:1;fill:#072132;fill-opacity:1;fill-rule:evenodd;stroke:#538296;stroke-width:.76088941;stroke-linecap:butt;stroke-linejoin:miter;stroke-miterlimit:4;stroke-dasharray:none;stroke-dashoffset:0;stroke-opacity:1;marker:none;enable-background:accumulate"/><g id="g4196" transform="matrix(1.146109,0,0,1.146109,-18.21105,-212.78222)"><path style="opacity:0;fill:#000;fill-opacity:.1372549;fill-rule:evenodd;stroke:#000;stroke-width:7.10775232px;stroke-linecap:butt;stroke-linejoin:miter;stroke-opacity:.28638497" id="LGRIP" d="m 390.63272,648.81596 c -11.78993,-4.4875 -85.69242,-15.79789 -102.13822,-17.14412 -17.90712,8.56832 -28.0742,22.58347 -29.82718,42.51958 l 0.63474,47.59657 c -0.55869,14.59846 4.67422,40.28362 23.79833,44.74073 l 116.13554,-13.32704 c 12.12598,-5.50232 10.14488,-8.91459 6.34624,-12.05771 -10.81472,-8.85246 -23.79037,-28.69912 -23.16368,-39.34656 0.50253,-14.43269 1.57474,-25.11649 19.69579,-38.58706 4.01937,-2.30096 -1.13067,-9.93728 -11.48156,-14.39439 z"/><path style="opacity:0;fill:#000;fill-opacity:.1372549;fill-rule:evenodd;stroke:#000;stroke-width:7.10775232px;stroke-linecap:butt;stroke-linejoin:miter;stroke-opacity:.28638497" id="RGRIP" d="m 504.50639,648.81596 c 11.78993,-4.4875 85.69242,-15.79789 102.13822,-17.14412 17.90712,8.56832 28.0742,22.58347 29.82718,42.51958 l -0.63474,47.59657 c 0.55869,14.59846 -4.67422,40.28362 -23.79833,44.74073 L 495.90318,753.20168 c -12.12598,-5.50232 -10.14488,-8.91459 -6.34624,-12.05771 10.81472,-8.85246 23.79037,-28.69912 23.16368,-39.34656 -0.50253,-14.43269 -1.57474,-25.11649 -19.69579,-38.58706 -4.01937,-2.30096 1.13067,-9.93728 11.48156,-14.39439 z"/></g></g></g></svg>