<svg xmlns="http://www.w3.org/2000/svg" xmlns:svg="http://www.w3.org/2000/svg" id="svg2" width="25" height="25" version="1.1" viewBox="0 0 25 25"><metadata id="metadata7"/><g id="layer1" style="opacity:1"><g id="button"><circle id="path4170-0-8-4-6" cx="12.485" cy="12.515" r="12.153" style="color:#000;display:inline;overflow:visible;visibility:visible;opacity:1;fill:#000;fill-opacity:.60335197;fill-rule:evenodd;stroke:#000;stroke-width:.66388923;stroke-linecap:butt;stroke-linejoin:miter;stroke-miterlimit:4;stroke-dasharray:none;stroke-dashoffset:0;stroke-opacity:1;marker:none;enable-background:accumulate"/><g id="text923-1" aria-label="2" transform="translate(-25.96347,0.70347992)" style="font-style:normal;font-variant:normal;font-weight:400;font-stretch:normal;font-size:40px;line-height:125%;font-family:'Ubuntu Mono';-inkscape-font-specification:'Ubuntu Mono';letter-spacing:0;word-spacing:0;opacity:1;fill:#fff;fill-opacity:1;stroke:none;stroke-width:1px;stroke-linecap:butt;stroke-linejoin:miter;stroke-opacity:1"><path id="path985" d="m 43.405285,7.5733387 q 0,0.93867 -0.38133,1.81867 -0.352,0.8800003 -0.968,1.7306603 -0.58667,0.85067 -1.34934,1.672 -0.76266,0.82134 -1.55466,1.61334 -0.44,0.44 -1.02667,1.056 -0.58667,0.616 -1.11467,1.26133 -0.528,0.64533 -0.88,1.26133 -0.352,0.616 -0.352,1.056 h 8.36 v 2.05334 h -11 q -0.0293,-0.14667 -0.0293,-0.29334 0,-0.176 0,-0.32266 0,-1.232 0.41067,-2.288 0.41066,-1.056 1.056,-1.99467 0.64533,-0.93867 1.43733,-1.76 0.82133,-0.85067 1.61333,-1.64267 0.64534,-0.64533 1.232,-1.26133 0.616,-0.616 1.056,-1.232 0.46934,-0.6160003 0.73334,-1.2613303 0.29333,-0.67467 0.29333,-1.37867 0,-0.792 -0.264,-1.34933 -0.23467,-0.55734 -0.67467,-0.90934 -0.41066,-0.38133 -0.968,-0.55733 -0.55733,-0.176 -1.20266,-0.176 -0.76267,0 -1.408,0.20533 -0.616,0.20534 -1.11467,0.49867 -0.46933,0.29333 -0.82133,0.58667 -0.352,0.264 -0.528,0.44 l -1.20267,-1.70134 q 0.23467,-0.264 0.704,-0.64533 0.46933,-0.38133 1.11467,-0.704 0.67466,-0.352 1.496,-0.58667 0.82133,-0.23466 1.76,-0.23466 2.84533,0 4.19466,1.32 1.37867,1.29066 1.37867,3.72533 z" style="font-size:29.33333397px;fill:#fff"/></g></g></g></svg>