<svg xmlns="http://www.w3.org/2000/svg" xmlns:svg="http://www.w3.org/2000/svg" id="svg2" width="25" height="25" version="1.1" viewBox="0 0 25 25"><metadata id="metadata7"/><g id="layer1" style="opacity:1"><g id="button"><circle id="path4170-0-8-4" cx="12.485" cy="12.515" r="12.153" style="color:#000;display:inline;overflow:visible;visibility:visible;opacity:1;fill:#000;fill-opacity:.60335197;fill-rule:evenodd;stroke:#000;stroke-width:.66388923;stroke-linecap:butt;stroke-linejoin:miter;stroke-miterlimit:4;stroke-dasharray:none;stroke-dashoffset:0;stroke-opacity:1;marker:none;enable-background:accumulate"/><g id="text923-1-2" aria-label="3" transform="translate(-50.607845,0.19457992)" style="font-style:normal;font-variant:normal;font-weight:400;font-stretch:normal;font-size:40px;line-height:125%;font-family:'Ubuntu Mono';-inkscape-font-specification:'Ubuntu Mono';letter-spacing:0;word-spacing:0;opacity:1;fill:#fff;fill-opacity:1;stroke:none;stroke-width:1px;stroke-linecap:butt;stroke-linejoin:miter;stroke-opacity:1"><path id="path982" d="m 61.963006,19.65424 q 2.31734,0 3.28534,-0.90933 0.99733,-0.93867 0.99733,-2.49333 0,-0.99734 -0.41067,-1.672 -0.41066,-0.67467 -1.08533,-1.08534 -0.67467,-0.41066 -1.55467,-0.58666 -0.88,-0.176 -1.848,-0.176 h -0.616 v -1.96534 h 0.85067 q 0.64533,0 1.32,-0.11733 0.704,-0.14667 1.26133,-0.46933 0.58667,-0.3519998 0.93867,-0.9386698 0.352,-0.58667 0.352,-1.496 0,-1.496 -0.93867,-2.112 -0.90933,-0.64533 -2.14133,-0.64533 -1.26133,0 -2.14133,0.38133 -0.88,0.352 -1.46667,0.73333 l -0.93867,-1.848 q 0.616,-0.44 1.848,-0.9093295 1.26134,-0.49867 2.78667,-0.49867 1.43733,0 2.464,0.352 1.02667,0.352 1.672,0.9973395 0.67467,0.64533 0.99733,1.52533 0.32267,0.85067 0.32267,1.87733 0,1.43734 -0.76267,2.4346698 -0.73333,0.99733 -1.90666,1.52533 1.408,0.41067 2.43466,1.61334 1.02667,1.17333 1.02667,3.13866 0,1.17334 -0.41067,2.2 -0.38133,0.99734 -1.20266,1.73067 -0.792,0.73333 -2.08267,1.144 -1.26133,0.41067 -3.02133,0.41067 -0.67467,0 -1.408,-0.11734 -0.704,-0.088 -1.32,-0.264 -0.616,-0.14666 -1.11467,-0.29333 -0.46933,-0.176 -0.67467,-0.264 l 0.46934,-2.08267 q 0.46933,0.23467 1.496,0.55734 1.02666,0.32266 2.52266,0.32266 z" style="font-size:29.33333397px;fill:#fff"/></g></g></g></svg>