<svg xmlns="http://www.w3.org/2000/svg" xmlns:svg="http://www.w3.org/2000/svg" xmlns:xlink="http://www.w3.org/1999/xlink" id="svg2" width="512" height="512" version="1.1"><defs id="defs4"><linearGradient id="linearGradient5164"><stop style="stop-color:#1a1a1a;stop-opacity:1" id="stop5166" offset="0"/><stop style="stop-color:#1a1a1a;stop-opacity:0" id="stop5168" offset="1"/></linearGradient><linearGradient id="linearGradient5132"><stop style="stop-color:#1a1a1a;stop-opacity:1" id="stop5134" offset="0"/><stop style="stop-color:#1a1a1a;stop-opacity:0" id="stop5136" offset="1"/></linearGradient><linearGradient id="linearGradient4478"><stop style="stop-color:#fff;stop-opacity:1" id="stop4480" offset="0"/><stop style="stop-color:#fff;stop-opacity:0" id="stop4482" offset="1"/></linearGradient><linearGradient id="linearGradient4468"><stop style="stop-color:#fff;stop-opacity:1" id="stop4470" offset="0"/><stop style="stop-color:#fff;stop-opacity:0" id="stop4472" offset="1"/></linearGradient><linearGradient id="linearGradient4458"><stop style="stop-color:#fff;stop-opacity:1" id="stop4460" offset="0"/><stop style="stop-color:#fff;stop-opacity:0" id="stop4462" offset="1"/></linearGradient><linearGradient id="linearGradient4093"><stop style="stop-color:#4d4d4d;stop-opacity:1" id="stop4095" offset="0"/><stop style="stop-color:#4d4d4d;stop-opacity:0" id="stop4097" offset="1"/></linearGradient><linearGradient id="linearGradient4077"><stop style="stop-color:#4d4d4d;stop-opacity:1" id="stop4079" offset="0"/><stop style="stop-color:#4d4d4d;stop-opacity:0" id="stop4081" offset="1"/></linearGradient><linearGradient id="linearGradient4053"><stop style="stop-color:#4d4d4d;stop-opacity:1" id="stop4055" offset="0"/><stop style="stop-color:#4d4d4d;stop-opacity:0" id="stop4057" offset="1"/></linearGradient><linearGradient id="linearGradient3870"><stop style="stop-color:#fff;stop-opacity:1" id="stop3872" offset="0"/><stop style="stop-color:#fff;stop-opacity:0" id="stop3874" offset="1"/></linearGradient><linearGradient id="linearGradient3810"><stop style="stop-color:#fff;stop-opacity:1" id="stop3812" offset="0"/><stop style="stop-color:#fff;stop-opacity:0" id="stop3814" offset="1"/></linearGradient><radialGradient id="radialGradient3820" cx="282.598" cy="273.444" r="279.806" fx="282.598" fy="273.444" gradientTransform="matrix(1,0,0,0.97230306,14.945567,9.2339859)" gradientUnits="userSpaceOnUse" xlink:href="#linearGradient3810"/><radialGradient id="radialGradient3876" cx="71.554" cy="65.831" r="127.371" fx="71.554" fy="65.831" gradientTransform="matrix(1,0,0,1.0603731,-353,72.755373)" gradientUnits="userSpaceOnUse" xlink:href="#linearGradient3870"/><filter id="filter4142" width="1.5" height="1.5" x="-.25" y="-.25" style="color-interpolation-filters:sRGB"><feGaussianBlur id="feGaussianBlur4144" result="result1" stdDeviation="1"/><feComposite id="feComposite4146" in="result1" in2="result1" operator="in" result="result4"/><feGaussianBlur id="feGaussianBlur4148" in="result4" result="result6" stdDeviation="7"/><feComposite id="feComposite4150" in="result6" in2="result4" operator="over" result="result8"/><feComposite id="feComposite4152" in="result6" in2="result8" operator="in" result="fbSourceGraphic"/><feSpecularLighting id="feSpecularLighting4154" in="fbSourceGraphic" lighting-color="#fff" result="result1" specularConstant="2" specularExponent="45" surfaceScale="2.5"><fePointLight id="fePointLight4156" x="-5000" y="-10000" z="20000"/></feSpecularLighting><feComposite id="feComposite4158" in="result1" in2="fbSourceGraphic" operator="in" result="result2"/><feComposite id="feComposite4160" in="fbSourceGraphic" in2="result2" k1="0" k2="1.2" k3="1.5" k4="0" operator="arithmetic" result="result4"/><feComposite id="feComposite4162" in2="result4" operator="over" result="result9"/><feBlend id="feBlend4164" in2="result9" mode="screen"/></filter><filter id="filter4170" width="1.5" height="1.5" x="-.25" y="-.25" style="color-interpolation-filters:sRGB"><feGaussianBlur id="feGaussianBlur4172" result="result1" stdDeviation="1"/><feComposite id="feComposite4174" in="result1" in2="result1" operator="in" result="result4"/><feGaussianBlur id="feGaussianBlur4176" in="result4" result="result6" stdDeviation="7"/><feComposite id="feComposite4178" in="result6" in2="result4" operator="over" result="result8"/><feComposite id="feComposite4180" in="result6" in2="result8" operator="in" result="fbSourceGraphic"/><feSpecularLighting id="feSpecularLighting4182" in="fbSourceGraphic" lighting-color="#fff" result="result1" specularConstant="2" specularExponent="45" surfaceScale="2.5"><fePointLight id="fePointLight4184" x="-5000" y="-10000" z="20000"/></feSpecularLighting><feComposite id="feComposite4186" in="result1" in2="fbSourceGraphic" operator="in" result="result2"/><feComposite id="feComposite4188" in="fbSourceGraphic" in2="result2" k1="0" k2="1.2" k3="1.5" k4="0" operator="arithmetic" result="result4"/><feComposite id="feComposite4190" in2="result4" operator="over" result="result9"/><feBlend id="feBlend4192" in2="result9" mode="screen"/></filter><radialGradient id="radialGradient4464" cx="924.29" cy="337.932" r="15.657" fx="924.29" fy="337.932" gradientTransform="matrix(1,0,0,7.8225804,0,-2305.5669)" gradientUnits="userSpaceOnUse" xlink:href="#linearGradient4458"/><radialGradient id="radialGradient4474" cx="921.007" cy="345.76" r="16.415" fx="921.007" fy="345.76" gradientTransform="matrix(1,0,0,3.5076926,0,-867.06102)" gradientUnits="userSpaceOnUse" xlink:href="#linearGradient4468"/><linearGradient id="linearGradient4484" x1="903.581" x2="931.866" y1="331.618" y2="331.618" gradientUnits="userSpaceOnUse" xlink:href="#linearGradient4478"/><filter id="filter4850" width="1.5" height="1.5" x="-.25" y="-.25" style="color-interpolation-filters:sRGB"><feGaussianBlur id="feGaussianBlur4852" result="result1" stdDeviation="1"/><feComposite id="feComposite4854" in="result1" in2="result1" operator="in" result="result4"/><feGaussianBlur id="feGaussianBlur4856" in="result4" result="result6" stdDeviation="7"/><feComposite id="feComposite4858" in="result6" in2="result4" operator="over" result="result8"/><feComposite id="feComposite4860" in="result6" in2="result8" operator="in" result="fbSourceGraphic"/><feSpecularLighting id="feSpecularLighting4862" in="fbSourceGraphic" lighting-color="#fff" result="result1" specularConstant="2" specularExponent="45" surfaceScale="2.5"><fePointLight id="fePointLight4864" x="-5000" y="-10000" z="20000"/></feSpecularLighting><feComposite id="feComposite4866" in="result1" in2="fbSourceGraphic" operator="in" result="result2"/><feComposite id="feComposite4868" in="fbSourceGraphic" in2="result2" k1="0" k2="1.2" k3="1.5" k4="0" operator="arithmetic" result="result4"/><feComposite id="feComposite4870" in2="result4" operator="over" result="result9"/><feBlend id="feBlend4872" in2="result9" mode="screen"/></filter><filter id="filter4884" width="1.5" height="1.5" x="-.25" y="-.25" style="color-interpolation-filters:sRGB"><feGaussianBlur id="feGaussianBlur4886" result="result1" stdDeviation="1"/><feComposite id="feComposite4888" in="result1" in2="result1" operator="in" result="result4"/><feGaussianBlur id="feGaussianBlur4890" in="result4" result="result6" stdDeviation="7"/><feComposite id="feComposite4892" in="result6" in2="result4" operator="over" result="result8"/><feComposite id="feComposite4894" in="result6" in2="result8" operator="in" result="fbSourceGraphic"/><feSpecularLighting id="feSpecularLighting4896" in="fbSourceGraphic" lighting-color="#fff" result="result1" specularConstant="2" specularExponent="45" surfaceScale="2.5"><fePointLight id="fePointLight4898" x="-5000" y="-10000" z="20000"/></feSpecularLighting><feComposite id="feComposite4900" in="result1" in2="fbSourceGraphic" operator="in" result="result2"/><feComposite id="feComposite4902" in="fbSourceGraphic" in2="result2" k1="0" k2="1.2" k3="1.5" k4="0" operator="arithmetic" result="result4"/><feComposite id="feComposite4904" in2="result4" operator="over" result="result9"/><feBlend id="feBlend4906" in2="result9" mode="screen"/></filter><filter id="filter4920" width="1" height="1" x="0" y="0" style="color-interpolation-filters:sRGB"><feGaussianBlur id="feGaussianBlur4922" in="SourceAlpha" result="result0" stdDeviation="2.3"/><feMorphology id="feMorphology4924" in="SourceAlpha" radius="6.6" result="result1"/><feGaussianBlur id="feGaussianBlur4926" in="result1" stdDeviation="8.9"/><feColorMatrix id="feColorMatrix4928" result="result91" values="1 0 0 0 0 0 1 0 0 0 0 0 1 0 0 0 0 0 0.3 0"/><feComposite id="feComposite4930" in="result0" in2="result91" operator="out" result="result2"/><feGaussianBlur id="feGaussianBlur4932" result="result4" stdDeviation="1.7"/><feDiffuseLighting id="feDiffuseLighting4934" surfaceScale="10"><feDistantLight id="feDistantLight4936" azimuth="225" elevation="45"/></feDiffuseLighting><feBlend id="feBlend4938" in2="SourceGraphic" mode="multiply"/><feComposite id="feComposite4940" in2="SourceAlpha" operator="in" result="result3"/><feSpecularLighting id="feSpecularLighting4942" in="result4" specularExponent="17.9" surfaceScale="5"><feDistantLight id="feDistantLight4944" azimuth="225" elevation="45"/></feSpecularLighting><feComposite id="feComposite4946" in2="result3" operator="atop"/></filter><linearGradient id="linearGradient5670" x1="1.604" x2="341.396" y1="102" y2="102" gradientTransform="matrix(1.0003451,0,0,1.2656822,2580.3424,40.229094)" gradientUnits="userSpaceOnUse" xlink:href="#linearGradient4077"/><linearGradient id="linearGradient5672" x1="1.604" x2="341.396" y1="102.5" y2="102.5" gradientTransform="matrix(1.0003451,0,0,1.2656822,2580.3424,-224.29848)" gradientUnits="userSpaceOnUse" xlink:href="#linearGradient4053"/><filter id="filter4399" width="1.5" height="1.5" x="-.25" y="-.25" style="color-interpolation-filters:sRGB"><feGaussianBlur id="feGaussianBlur4401" result="result1" stdDeviation="1"/><feComposite id="feComposite4403" in="result1" in2="result1" operator="in" result="result4"/><feGaussianBlur id="feGaussianBlur4405" in="result4" result="result6" stdDeviation="7"/><feComposite id="feComposite4407" in="result6" in2="result4" operator="over" result="result8"/><feComposite id="feComposite4409" in="result6" in2="result8" operator="in" result="fbSourceGraphic"/><feSpecularLighting id="feSpecularLighting4411" in="fbSourceGraphic" lighting-color="#fff" result="result1" specularConstant="2" specularExponent="45" surfaceScale="2.5"><fePointLight id="fePointLight4413" x="-5000" y="-10000" z="20000"/></feSpecularLighting><feComposite id="feComposite4415" in="result1" in2="fbSourceGraphic" operator="in" result="result2"/><feComposite id="feComposite4417" in="fbSourceGraphic" in2="result2" k1="0" k2="1.2" k3="1.5" k4="0" operator="arithmetic" result="result4"/><feComposite id="feComposite4419" in2="result4" operator="over" result="result9"/><feBlend id="feBlend4421" in2="result9" mode="screen"/></filter><filter id="filter4427" width="1.5" height="1.5" x="-.25" y="-.25" style="color-interpolation-filters:sRGB"><feGaussianBlur id="feGaussianBlur4429" result="result1" stdDeviation="1"/><feComposite id="feComposite4431" in="result1" in2="result1" operator="in" result="result4"/><feGaussianBlur id="feGaussianBlur4433" in="result4" result="result6" stdDeviation="7"/><feComposite id="feComposite4435" in="result6" in2="result4" operator="over" result="result8"/><feComposite id="feComposite4437" in="result6" in2="result8" operator="in" result="fbSourceGraphic"/><feSpecularLighting id="feSpecularLighting4439" in="fbSourceGraphic" lighting-color="#fff" result="result1" specularConstant="2" specularExponent="45" surfaceScale="2.5"><fePointLight id="fePointLight4441" x="-5000" y="-10000" z="20000"/></feSpecularLighting><feComposite id="feComposite4443" in="result1" in2="fbSourceGraphic" operator="in" result="result2"/><feComposite id="feComposite4445" in="fbSourceGraphic" in2="result2" k1="0" k2="1.2" k3="1.5" k4="0" operator="arithmetic" result="result4"/><feComposite id="feComposite4447" in2="result4" operator="over" result="result9"/><feBlend id="feBlend4449" in2="result9" mode="screen"/></filter><linearGradient id="linearGradient5138" x1="371.463" x2="571.325" y1="267.539" y2="267.539" gradientUnits="userSpaceOnUse" xlink:href="#linearGradient5132"/><linearGradient id="linearGradient5140" x1="371.463" x2="571.325" y1="267.539" y2="267.539" gradientUnits="userSpaceOnUse" xlink:href="#linearGradient5132"/><linearGradient id="linearGradient5142" x1="371.463" x2="571.325" y1="267.539" y2="267.539" gradientUnits="userSpaceOnUse" xlink:href="#linearGradient5132"/><linearGradient id="linearGradient5144" x1="371.463" x2="571.325" y1="267.539" y2="267.539" gradientUnits="userSpaceOnUse" xlink:href="#linearGradient5132"/><linearGradient id="linearGradient5146" x1="371.463" x2="571.325" y1="267.539" y2="267.539" gradientUnits="userSpaceOnUse" xlink:href="#linearGradient5132"/><linearGradient id="linearGradient5148" x1="371.463" x2="571.325" y1="267.539" y2="267.539" gradientUnits="userSpaceOnUse" xlink:href="#linearGradient5132"/><linearGradient id="linearGradient5150" x1="371.463" x2="571.325" y1="267.539" y2="267.539" gradientUnits="userSpaceOnUse" xlink:href="#linearGradient5132"/><linearGradient id="linearGradient5152" x1="371.463" x2="571.325" y1="267.539" y2="267.539" gradientUnits="userSpaceOnUse" xlink:href="#linearGradient5132"/><linearGradient id="linearGradient5154" x1="371.463" x2="571.325" y1="267.539" y2="267.539" gradientUnits="userSpaceOnUse" xlink:href="#linearGradient5132"/><linearGradient id="linearGradient5156" x1="371.463" x2="571.325" y1="267.539" y2="267.539" gradientUnits="userSpaceOnUse" xlink:href="#linearGradient5132"/><linearGradient id="linearGradient5158" x1="371.463" x2="571.325" y1="267.539" y2="267.539" gradientUnits="userSpaceOnUse" xlink:href="#linearGradient5132"/><linearGradient id="linearGradient5160" x1="371.463" x2="571.325" y1="267.539" y2="267.539" gradientUnits="userSpaceOnUse" xlink:href="#linearGradient5132"/><linearGradient id="linearGradient5170" x1="234.34" x2="387.914" y1="146.76" y2="146.76" gradientUnits="userSpaceOnUse" xlink:href="#linearGradient5164"/><linearGradient id="linearGradient5174" x1="234.34" x2="387.914" y1="146.76" y2="146.76" gradientUnits="userSpaceOnUse" xlink:href="#linearGradient5164"/><filter id="filter4142-6" width="1.5" height="1.5" x="-.25" y="-.25" style="color-interpolation-filters:sRGB"><feGaussianBlur id="feGaussianBlur4144-7" result="result1" stdDeviation="1"/><feComposite id="feComposite4146-5" in="result1" in2="result1" operator="in" result="result4"/><feGaussianBlur id="feGaussianBlur4148-3" in="result4" result="result6" stdDeviation="7"/><feComposite id="feComposite4150-5" in="result6" in2="result4" operator="over" result="result8"/><feComposite id="feComposite4152-6" in="result6" in2="result8" operator="in" result="fbSourceGraphic"/><feSpecularLighting id="feSpecularLighting4154-2" in="fbSourceGraphic" lighting-color="#fff" result="result1" specularConstant="2" specularExponent="45" surfaceScale="2.5"><fePointLight id="fePointLight4156-9" x="-5000" y="-10000" z="20000"/></feSpecularLighting><feComposite id="feComposite4158-1" in="result1" in2="fbSourceGraphic" operator="in" result="result2"/><feComposite id="feComposite4160-2" in="fbSourceGraphic" in2="result2" k1="0" k2="1.2" k3="1.5" k4="0" operator="arithmetic" result="result4"/><feComposite id="feComposite4162-7" in2="result4" operator="over" result="result9"/><feBlend id="feBlend4164-0" in2="result9" mode="screen"/></filter><linearGradient id="linearGradient5672-9" x1="1.604" x2="341.396" y1="102.5" y2="102.5" gradientTransform="matrix(1.0003451,0,0,1.2656822,620.3424,-744.29847)" gradientUnits="userSpaceOnUse" xlink:href="#linearGradient4093"/><linearGradient id="linearGradient5670-0" x1="1.604" x2="341.396" y1="102" y2="102" gradientTransform="matrix(1.0003451,0,0,1.2656822,620.3424,-479.77089)" gradientUnits="userSpaceOnUse" xlink:href="#linearGradient4093"/></defs><metadata id="metadata7"/><g id="layer1" transform="translate(0,-610.51978)" style="display:inline"><g id="g4732" transform="matrix(0.27050064,0,0,0.27050064,63.227718,825.94777)"><rect style="display:inline;fill:#f9f9f9;fill-opacity:1;stroke:none;stroke-width:3.94160557" id="rect4505-6" width="1088.376" height="1473.85" x="238.185" y="-396.52" rx="167.684" ry="223.374"/><path style="display:inline;opacity:1;fill:#000;fill-opacity:1;stroke:#fff;stroke-width:10;stroke-miterlimit:4;stroke-dasharray:none;stroke-opacity:.9669418" id="path4507-3-1" d="m 1190.5226,1025.9785 c 49.9444,-18.9548 80.8869,-58.1127 97.4327,-123.3016 3.0593,-12.0533 3.3887,-57.0602 4.0249,-549.9443 0.5133,-397.67839 0.094,-541.69071 -1.6195,-555.62162 -4.1795,-33.98983 -17.6332,-69.8092 -35.0369,-93.28291 -10.5214,-14.19105 -32.6407,-33.80816 -46.0861,-40.87274 -25.3478,-13.31846 4.7194,-12.44225 -426.9522,-12.44225 -431.6736,0 -401.6288,-0.8756 -426.9309,12.44225 -14.0295,7.3845 -34.3523,25.4928 -45.7721,40.78439 -17.2633,23.11643 -30.9288,59.31725 -35.4989,94.03902 -1.4688,11.1594 -1.9483,182.49343 -1.5501,553.96342 l 0.5765,537.80704 5.4187,19.4387 c 11.0131,39.5076 24.9125,64.4422 49.0133,87.927 16.6184,16.1937 35.6863,26.7013 56.6062,31.1936 10.9733,2.3564 74.0949,2.7372 404.1394,2.4376 l 391.1349,-0.3549 z"/><path style="display:inline;opacity:1;fill:#000;fill-opacity:1;stroke:none;stroke-width:5;stroke-miterlimit:4;stroke-dasharray:none;stroke-opacity:.9669418" id="path4507-8" d="m 357.139,1075.358 c -3.3012,-0.4346 -10.5037,-2.1847 -16.0056,-3.8891 -46.8654,-14.5185 -84.4598,-62.3953 -97.0582,-123.6044 -3.9166,-19.0283 -3.9756,-28.2019 -3.9068,-607.32831 0.057,-483.99851 0.5464,-590.65317 2.7644,-602.96149 3.7417,-20.76431 13.0481,-46.4856 23.4175,-64.72196 11.1671,-19.63921 37.8428,-46.58383 54.9392,-55.49307 25.547,-13.31295 -8.1275,-12.40668 460.9961,-12.40668 375.4461,0 426.6851,0.35558 437.0677,3.0331 42.017,10.83565 79.1869,50.83902 95.652,102.94361 11.0643,35.0135 10.4677,-0.94824 10.4677,630.90809 V 927.1858 l -4.5576,20.392 c -8.9803,40.1807 -24.8606,70.3972 -49.8983,94.9444 -16.608,16.2826 -39.2243,28.4949 -59.4509,32.1023 -8.2114,1.4645 -140.8213,2.0257 -430.1482,1.8204 -230.0525,-0.1632 -420.978,-0.6524 -424.279,-1.0869 z m 833.3836,-49.3795 c 49.9444,-18.9548 80.8869,-58.1127 97.4327,-123.3016 3.0593,-12.0534 3.3887,-57.0603 4.0249,-549.94431 0.5133,-397.6784 0.094,-541.69071 -1.6195,-555.62162 -4.1795,-33.98983 -17.6332,-69.8092 -35.0369,-93.28291 -10.5214,-14.19105 -32.6407,-33.80816 -46.0861,-40.87274 -25.3478,-13.31846 4.7194,-12.44225 -426.9522,-12.44225 -431.6736,0 -401.6288,-0.8756 -426.9309,12.44225 -14.0295,7.3845 -34.3523,25.4928 -45.7721,40.78439 -17.2633,23.11643 -30.9288,59.31725 -35.4989,94.03902 -1.4688,11.1594 -1.9483,182.49342 -1.5501,553.96342 l 0.5765,537.80705 5.4187,19.4387 c 11.0131,39.5076 24.9125,64.4422 49.0133,87.927 16.6184,16.1937 35.6863,26.7013 56.6062,31.1936 10.9733,2.3564 74.0949,2.7372 404.1394,2.4376 l 391.1349,-0.3549 z"/><rect style="display:inline;fill:#333;fill-opacity:1;stroke:#ababab;stroke-width:5;stroke-miterlimit:4;stroke-dasharray:none;stroke-opacity:1" id="rect4509-7" width="339.528" height="1156.304" x="622.332" y="-226.85" rx="167.684" ry="48.319"/><path style="display:inline;fill:url(#linearGradient5670-0);fill-opacity:1;stroke:#000;stroke-width:1.00236917;stroke-linejoin:round;stroke-miterlimit:4;stroke-dasharray:none;stroke-opacity:1" id="path4515-9" d="m 622.3431,-350.67131 v -127.8339 h 169.5585 169.5585 v 127.8339 127.8339 H 791.9016 622.3431 Z"/><path style="display:inline;fill:url(#linearGradient5672-9);fill-opacity:1;stroke:#000;stroke-width:1.00236917;stroke-linejoin:round;stroke-miterlimit:4;stroke-dasharray:none;stroke-opacity:1" id="path4517-2" d="m 622.387,-592.10018 c 0.046,-111.78605 0.049,-111.86151 4.5304,-118.12652 2.9435,-4.11535 12.3938,-11.5152 19.5946,-15.34312 9.5339,-5.06822 26.7384,-10.62668 44.3201,-14.31901 l 14.9705,-3.14396 h 86.2927 c 82.4506,0 86.859,0.11647 99.0123,2.61575 39.3066,8.08331 63.9691,21.04384 69.0049,36.26333 1.0939,3.30602 1.3476,24.2161 1.3476,111.06361 v 106.9908 H 791.9016 622.3431 Z"/><rect style="fill:#000;fill-opacity:1;stroke:none;stroke-width:4.19402027" id="rect4547-2" width="275.607" height="155.778" x="313.247" y="-49.19" rx="20.909" ry="186.154"/><text style="font-style:normal;font-variant:normal;font-weight:400;font-stretch:normal;font-size:50.32824326px;line-height:0%;font-family:Krungthep;-inkscape-font-specification:Krungthep;text-align:start;letter-spacing:0;word-spacing:0;writing-mode:lr-tb;text-anchor:start;fill:#f9f9f9;fill-opacity:1;stroke:none;stroke-width:4.19402027" id="text4549-3" x="335.276" y="91.973" xml:space="preserve"><tspan id="tspan4551-7" x="335.276" y="91.973" style="font-size:167.76081848px;line-height:1.25;stroke-width:4.19402027">D</tspan></text><path style="fill:#fff;fill-opacity:1;stroke:#fff;stroke-width:2.5;stroke-miterlimit:4;stroke-dasharray:none;stroke-opacity:.9958678" id="path4553-5" d="M 499.37125,72.093686 A 44.439735,47.660007 0 0 1 480.41342,7.8466232 44.439735,47.660007 0 0 1 540.31155,-12.511748 44.439735,47.660007 0 0 1 559.31933,51.718337 44.439735,47.660007 0 0 1 499.43705,72.130273"/><rect id="rect4559-2" width="270.981" height="153.163" x="315.194" y="448.418" rx="20.909" ry="186.154" style="display:inline;fill:#000;fill-opacity:1;stroke:none;stroke-width:4.1236248"/><text id="text4561-2" x="336.854" y="587.212" xml:space="preserve" style="font-style:normal;font-variant:normal;font-weight:400;font-stretch:normal;font-size:49.48349762px;line-height:0%;font-family:Krungthep;-inkscape-font-specification:Krungthep;text-align:start;letter-spacing:0;word-spacing:0;writing-mode:lr-tb;text-anchor:start;display:inline;fill:#f9f9f9;fill-opacity:1;stroke:none;stroke-width:4.1236248"><tspan id="tspan4563-8" x="336.854" y="587.212" style="font-size:164.94499207px;line-height:1.25;stroke-width:4.1236248">R</tspan></text><path id="path4565-9" d="m 498.19448,567.66613 a 43.693821,46.860043 0 0 1 -18.63962,-63.16869 43.693821,46.860043 0 0 1 58.89275,-20.01665 43.693821,46.860043 0 0 1 18.68874,63.15199 43.693821,46.860043 0 0 1 -58.87717,20.06932" style="display:inline;fill:#080808;fill-opacity:1;stroke:#6e6e6e;stroke-width:2.5;stroke-miterlimit:4;stroke-dasharray:none;stroke-opacity:1"/><path style="display:inline;fill:#1a1a1a;fill-opacity:1;stroke:none;stroke-width:1.36773658" id="path4525-3" d="m 607.0076,-38.86076 c -23.907,-13.05779 -39.5694,-25.21398 -64.3163,-49.91829 -39.5891,-39.52111 -74.6677,-89.19853 -94.7372,-134.16453 -19.7724,-44.30028 -31.8946,-103.43639 -37.9643,-185.20259 -2.3583,-31.76901 -2.0238,-94.07516 0.6359,-118.43678 5.9331,-54.34621 18.0012,-97.49592 38.7112,-138.41356 10.9948,-21.72299 21.0713,-35.44059 41.0067,-55.82413 17.896,-18.29829 31.7462,-28.75837 50.599,-38.2136 15.6679,-7.85794 29.5611,-11.40197 54.446,-13.8886 25.7367,-2.57175 379.8579,-2.57445 398.6953,-0.003 22.1017,3.017 49.9899,13.74226 68.3868,26.3002 29.868,20.38834 62.0883,60.51145 76.7626,95.59044 17.0869,40.84698 27.6975,82.38349 32.8724,128.68308 2.5733,23.02479 2.1561,94.26464 -0.7372,125.83176 -10.2067,111.36098 -28.9244,171.85313 -73.4265,237.3023 -12.425,18.27334 -36.2077,47.80907 -50.4671,62.67513 -22.2631,23.21038 -57.3723,51.09344 -76.018,60.37212 l -9.6336,4.79393 -169.8922,0.36303 -169.8924,0.36304 z"/><rect style="display:inline;fill:#f2f2f2;fill-opacity:1;stroke:none;stroke-width:2.98873162" id="rect4527-6" width="261.127" height="620.1" x="664.778" y="-774.04" rx="10.74" ry="10.74"/><path id="path4348" d="m 697.09024,197.54166 c -13.71255,-0.42205 -25.53057,-1.40278 -26.26227,-2.17939 -1.22551,-1.30076 -20.54291,-94.51761 -39.0998,-188.6777078 -5.27276,-26.7546552 -8.42306,-39.7718952 -9.92494,-41.0105362 -1.76361,-1.454498 31.47842,-1.814626 167.50149,-1.814626 h 169.70177 l -3.29473,8.657644 c -4.45939,11.718131 -12.25594,47.14449 -31.36519,142.518906 -8.85659,44.20332 -16.96228,80.63888 -16.89143,81.31021 2.09324,19.83422 -196.28294,37.69556 -235.42412,-0.59445 z" style="fill:#1a1a1a;fill-opacity:1;stroke:none;stroke-width:1.40909326"/><path id="path4543-1" d="m 607.0076,-38.86076 c -23.907,-13.05779 -39.5694,-25.21398 -64.3163,-49.91829 -39.5891,-39.52111 -74.6677,-89.19853 -94.7372,-134.16453 -19.7724,-44.30028 -31.8946,-103.43639 -37.9643,-185.20259 -2.3583,-31.76901 -2.0238,-94.07516 0.6359,-118.43678 5.9331,-54.34621 18.0012,-97.49592 38.7112,-138.41356 10.9948,-21.72299 21.0713,-35.44059 41.0067,-55.82413 17.896,-18.29829 31.7462,-28.75837 50.599,-38.2136 15.6679,-7.85794 29.5611,-11.40197 54.446,-13.8886 25.7367,-2.57175 379.8579,-2.57445 398.6953,-0.003 22.1017,3.017 49.9899,13.74226 68.3868,26.3002 29.868,20.38834 62.0883,60.51145 76.7626,95.59044 17.0869,40.84698 27.6975,82.38349 32.8724,128.68308 2.5733,23.02479 2.1561,94.26464 -0.7372,125.83176 -10.2067,111.36098 -28.9244,171.85313 -73.4265,237.3023 -12.425,18.27334 -36.2077,47.80907 -50.4671,62.67513 -22.2631,23.21038 -57.3723,51.09344 -76.018,60.37212 l -9.6336,4.79393 -169.8922,0.36303 -169.8924,0.36304 z" style="display:inline;opacity:1;fill:none;fill-opacity:1;stroke:#fff;stroke-width:5;stroke-miterlimit:4;stroke-dasharray:none;stroke-opacity:1"/></g></g><g id="layer2" transform="translate(0,-1423.1182)" style="display:none;opacity:1"><g id="g4754" transform="matrix(0.27050064,0,0,0.27050064,-466.95355,1418.6253)"><rect style="display:inline;fill:#f9f9f9;fill-opacity:1;stroke:none;stroke-width:3.94160557" id="rect4505" width="1088.376" height="1473.85" x="2198.186" y="-396.52" rx="167.684" ry="223.374" transform="translate(0,812.59843)"/><path style="display:inline;opacity:1;fill:#000;fill-opacity:1;stroke:#fff;stroke-width:10;stroke-miterlimit:4;stroke-dasharray:none;stroke-opacity:.9669418" id="path4507-3" d="m 3150.5226,1025.9785 c 49.9444,-18.9548 80.8869,-58.11272 97.4327,-123.30162 3.0593,-12.0533 3.3887,-57.0602 4.0249,-549.94429 0.5133,-397.678396 0.094,-541.69071 -1.6195,-555.62162 -4.1795,-33.98983 -17.6332,-69.8092 -35.0369,-93.28291 -10.5214,-14.19105 -32.6406,-33.80816 -46.086,-40.87274 -25.3478,-13.31846 4.7193,-12.44225 -426.9522,-12.44225 -431.6736,0 -401.6288,-0.8756 -426.9309,12.44225 -14.0295,7.3845 -34.3524,25.4928 -45.7722,40.78439 -17.2633,23.11643 -30.9288,59.31725 -35.4989,94.03902 -1.4688,11.1594 -1.9483,182.493424 -1.5501,553.96342 l 0.5765,537.80703 5.4187,19.4387 c 11.0131,39.5076 24.9125,64.4422 49.0133,87.927 16.6185,16.19372 35.6864,26.70132 56.6063,31.19362 10.9733,2.3564 74.0949,2.7372 404.1394,2.4376 l 391.1349,-0.3549 z" transform="translate(0,812.59843)"/><path style="display:inline;opacity:1;fill:#000;fill-opacity:1;stroke:none;stroke-width:5;stroke-miterlimit:4;stroke-dasharray:none;stroke-opacity:.9669418" id="path4507" d="m 2317.139,1075.358 c -3.3012,-0.4346 -10.5037,-2.1847 -16.0056,-3.8891 -46.8654,-14.5185 -84.4598,-62.3953 -97.0582,-123.60443 -3.9166,-19.02833 -3.9756,-28.20189 -3.9068,-607.32829 0.057,-483.99851 0.5464,-590.65317 2.7644,-602.96149 3.7417,-20.76431 13.0481,-46.4856 23.4175,-64.72196 11.1671,-19.63921 37.8428,-46.58383 54.9392,-55.49307 25.547,-13.31295 -8.1275,-12.40668 460.9961,-12.40668 375.4461,0 426.6851,0.35558 437.0677,3.0331 42.017,10.83565 79.1869,50.83902 95.652,102.94361 11.0643,35.0135 10.4677,-0.94824 10.4677,630.90809 v 585.348 l -4.5576,20.39196 c -8.9803,40.18074 -24.8606,70.39726 -49.8983,94.94446 -16.608,16.2826 -39.2242,28.4949 -59.4508,32.1023 -8.2115,1.4645 -140.8214,2.0257 -430.1483,1.8204 -230.0524,-0.1632 -420.9779,-0.6524 -424.279,-1.0869 z m 833.3836,-49.3795 c 49.9444,-18.9548 80.8869,-58.11276 97.4327,-123.30165 3.0593,-12.05332 3.3887,-57.06022 4.0249,-549.94427 0.5133,-397.678401 0.094,-541.69071 -1.6195,-555.62162 -4.1795,-33.98983 -17.6332,-69.8092 -35.0369,-93.28291 -10.5214,-14.19105 -32.6406,-33.80816 -46.086,-40.87274 -25.3478,-13.31846 4.7193,-12.44225 -426.9522,-12.44225 -431.6736,0 -401.6288,-0.8756 -426.9309,12.44225 -14.0295,7.3845 -34.3524,25.4928 -45.7722,40.78439 -17.2633,23.11643 -30.9288,59.31725 -35.4989,94.03902 -1.4688,11.1594 -1.9483,182.493419 -1.5501,553.96342 l 0.5765,537.80705 5.4187,19.43866 c 11.0131,39.50759 24.9125,64.44226 49.0133,87.927 16.6185,16.19375 35.6864,26.70135 56.6063,31.19365 10.9733,2.3564 74.0949,2.7372 404.1394,2.4376 l 391.1349,-0.3549 z" transform="translate(0,812.59843)"/><rect style="display:inline;fill:#333;fill-opacity:1;stroke:#ababab;stroke-width:5;stroke-miterlimit:4;stroke-dasharray:none;stroke-opacity:1" id="rect4509" width="339.528" height="1156.304" x="2582.332" y="-226.85" rx="167.684" ry="48.319" transform="translate(0,812.59843)"/><path style="display:inline;fill:url(#linearGradient5670);fill-opacity:1;stroke:#000;stroke-width:1.00236917;stroke-linejoin:round;stroke-miterlimit:4;stroke-dasharray:none;stroke-opacity:1" id="path4515" d="M 2582.3431,169.32868 V 41.494776 h 169.5585 169.5585 v 127.833904 127.8339 h -169.5585 -169.5585 z" transform="translate(0,812.59843)"/><path style="display:inline;fill:url(#linearGradient5672);fill-opacity:1;stroke:#000;stroke-width:1.00236917;stroke-linejoin:round;stroke-miterlimit:4;stroke-dasharray:none;stroke-opacity:1" id="path4517" d="m 2582.387,-72.100195 c 0.046,-111.786045 0.049,-111.861505 4.5304,-118.126515 2.9435,-4.11535 12.3938,-11.5152 19.5946,-15.34312 9.5339,-5.06822 26.7384,-10.62668 44.3201,-14.31901 l 14.9705,-3.14396 h 86.2927 c 82.4506,0 86.859,0.11647 99.0123,2.61575 39.3067,8.08331 63.9691,21.04384 69.0049,36.26333 1.0939,3.30602 1.3476,24.2161 1.3476,111.063609 v 106.9908 h -169.5585 -169.5585 z" transform="translate(0,812.59843)"/><g id="g4545" transform="matrix(4.1940204,0,0,4.1940204,730.18481,-199.95517)" style="display:inline"><rect id="rect4547" width="65.714" height="37.143" x="-7.857" y="238.791" rx="4.985" ry="44.386" transform="translate(375.77675,-9.0913729)" style="fill:#000;fill-opacity:1;stroke:none"/><text id="text4549" x="0" y="350.219" transform="translate(373.17214,-86.861858)" xml:space="preserve" style="font-style:normal;font-variant:normal;font-weight:400;font-stretch:normal;line-height:0%;font-family:Krungthep;-inkscape-font-specification:Krungthep;text-align:start;letter-spacing:0;word-spacing:0;writing-mode:lr-tb;text-anchor:start;fill:#f9f9f9;fill-opacity:1;stroke:none"><tspan style="font-size:40px;line-height:1.25" id="tspan4551" x="0" y="350.219">D</tspan></text><path id="path4553" d="m 37.778593,267.17916 a 8.7125654,9.3439112 0 0 1 -3.716748,-12.59586 8.7125654,9.3439112 0 0 1 11.743238,-3.99133 8.7125654,9.3439112 0 0 1 3.726542,12.59253 8.7125654,9.3439112 0 0 1 -11.740131,4.00183" transform="matrix(1.2161716,0,0,1.2161716,366.3528,-66.318157)" style="fill:#333;fill-opacity:1;stroke:none"/><path style="fill:#ff0;fill-opacity:1;stroke:none;filter:url(#filter4142)" id="path4555" d="m 37.778593,267.17916 a 8.7125654,9.3439112 0 0 1 -3.716748,-12.59586 8.7125654,9.3439112 0 0 1 11.743238,-3.99133 8.7125654,9.3439112 0 0 1 3.726542,12.59253 8.7125654,9.3439112 0 0 1 -11.740131,4.00183" transform="matrix(1.2161716,0,0,1.2161716,366.3528,-66.318157)"/></g><rect id="rect4559" width="270.981" height="153.163" x="2275.194" y="448.418" rx="20.909" ry="186.154" transform="translate(0,812.59843)" style="display:inline;fill:#000;fill-opacity:1;stroke:none;stroke-width:4.1236248"/><text id="text4561" x="2296.854" y="587.212" transform="translate(0,812.59843)" xml:space="preserve" style="font-style:normal;font-variant:normal;font-weight:400;font-stretch:normal;font-size:49.48349762px;line-height:0%;font-family:Krungthep;-inkscape-font-specification:Krungthep;text-align:start;letter-spacing:0;word-spacing:0;writing-mode:lr-tb;text-anchor:start;display:inline;fill:#f9f9f9;fill-opacity:1;stroke:none;stroke-width:4.1236248"><tspan id="tspan4563" x="2296.854" y="587.212" style="font-size:164.94499207px;line-height:1.25;stroke-width:4.1236248">R</tspan></text><path id="path4565" d="m 2458.1944,567.66607 a 43.693821,46.860043 0 0 1 -18.6396,-63.16869 43.693821,46.860043 0 0 1 58.8928,-20.01666 43.693821,46.860043 0 0 1 18.6887,63.152 43.693821,46.860043 0 0 1 -58.8772,20.06932" transform="translate(0,812.59843)" style="display:inline;fill:#f0f0f0;fill-opacity:1;stroke:#fff;stroke-width:2.5;stroke-miterlimit:4;stroke-dasharray:none;stroke-opacity:1"/><path style="display:inline;fill:#1c1c1c;fill-opacity:1;stroke:none;stroke-width:.80145335" id="path4523" d="m 2659.1607,550.72211 c -13.7125,-0.13654 -25.5305,-0.45381 -26.2622,-0.70504 -1.2256,-0.4208 -20.5429,-30.57664 -39.0998,-61.03762 -5.2728,-8.65519 -8.4231,-12.86629 -9.925,-13.267 -1.7636,-0.47053 31.4784,-0.58703 167.5015,-0.58703 h 169.7018 l -3.2947,2.80076 c -4.4594,3.79084 -12.256,15.25134 -31.3652,46.10516 -8.8566,14.29986 -16.9623,26.08684 -16.8915,26.30402 2.0933,6.41641 -196.2829,12.19459 -235.4241,-0.19231 z" transform="translate(0,812.59843)"/><path style="display:inline;fill:#1a1a1a;fill-opacity:1;stroke:none;stroke-width:1.36773658" id="path4525" d="m 2567.0076,481.13923 c -23.907,-13.05779 -39.5694,-25.21398 -64.3163,-49.91829 -39.5891,-39.52111 -74.6677,-89.19853 -94.7372,-134.16453 -19.7724,-44.30028 -31.8946,-103.43639 -37.9643,-185.20259 -2.3583,-31.769016 -2.0238,-94.075163 0.6359,-118.436781 5.9332,-54.346207 18.0012,-97.495919 38.7112,-138.413559 10.9948,-21.72299 21.0713,-35.44059 41.0067,-55.82413 17.896,-18.29829 31.7462,-28.75837 50.599,-38.2136 15.6679,-7.85794 29.5612,-11.40197 54.4461,-13.8886 25.7366,-2.57175 379.8578,-2.57445 398.6952,-0.003 22.1017,3.017 49.9899,13.74226 68.3868,26.3002 29.8681,20.38834 62.0884,60.51145 76.7626,95.59044 17.087,40.846978 27.6976,82.383484 32.8724,128.6830776 2.5734,23.0247924 2.1561,94.2646394 -0.7372,125.8317624 -10.2067,111.36098 -28.9243,171.85313 -73.4265,237.3023 -12.425,18.27334 -36.2076,47.80907 -50.467,62.67513 -22.2632,23.21038 -57.3724,51.09344 -76.0181,60.37212 l -9.6335,4.79393 -169.8923,0.36303 -169.8924,0.36304 z" transform="translate(0,812.59843)"/><rect style="display:inline;fill:#f2f2f2;fill-opacity:1;stroke:none;stroke-width:2.98873162" id="rect4527" width="261.127" height="620.1" x="2624.777" y="-254.04" rx="10.74" ry="10.74" transform="translate(0,812.59843)"/><path id="path4543" d="m 2567.0076,481.13923 c -23.907,-13.05779 -39.5694,-25.21398 -64.3163,-49.91829 -39.5891,-39.52111 -74.6677,-89.19853 -94.7372,-134.16453 -19.7724,-44.30028 -31.8946,-103.43639 -37.9643,-185.20259 -2.3583,-31.769016 -2.0238,-94.075163 0.6359,-118.436781 5.9332,-54.346207 18.0012,-97.495919 38.7112,-138.413559 10.9948,-21.72299 21.0713,-35.44059 41.0067,-55.82413 17.896,-18.29829 31.7462,-28.75837 50.599,-38.2136 15.6679,-7.85794 29.5612,-11.40197 54.4461,-13.8886 25.7366,-2.57175 379.8578,-2.57445 398.6952,-0.003 22.1017,3.017 49.9899,13.74226 68.3868,26.3002 29.8681,20.38834 62.0884,60.51145 76.7626,95.59044 17.087,40.846978 27.6976,82.383484 32.8724,128.6830776 2.5734,23.0247924 2.1561,94.2646394 -0.7372,125.8317624 -10.2067,111.36098 -28.9243,171.85313 -73.4265,237.3023 -12.425,18.27334 -36.2076,47.80907 -50.467,62.67513 -22.2632,23.21038 -57.3724,51.09344 -76.0181,60.37212 l -9.6335,4.79393 -169.8923,0.36303 -169.8924,0.36304 z" transform="translate(0,812.59843)" style="display:inline;opacity:1;fill:none;fill-opacity:1;stroke:#fff;stroke-width:5;stroke-miterlimit:4;stroke-dasharray:none;stroke-opacity:1"/></g></g></svg>